<?xml version="1.0" encoding="UTF-8" standalone="no"?>
<!DOCTYPE svg PUBLIC "-//W3C//DTD SVG 1.1//EN"
 "http://www.w3.org/Graphics/SVG/1.1/DTD/svg11.dtd">
<!-- Generated by graphviz version 2.40.1 (20161225.0304) -->
<!--

digraph G {
  graph[style=dashed];
  subgraph cluster_super{
    "super-pom" -> "super-dep" []
    "super-pom" -> "super-dep" [dir=back,arrowtail=empty]
  }
  subgraph cluster_app{
    "some-app" -> "module-a" []
    "some-app" -> "module-a" [dir=back,arrowtail=empty]
  }
  "super-dep" -> "module-a" [dir=back,arrowtail=open]
  "super-pom" -> "some-app" [dir=back,arrowtail=empty]
}

-->
<svg width="266pt" height="220pt"
 viewBox="0.00 0.00 266.00 220.00" xmlns="http://www.w3.org/2000/svg" xmlns:xlink="http://www.w3.org/1999/xlink">
<g id="graph0" class="graph" transform="scale(1 1) rotate(0) translate(4 216)">
<title>G</title>
<polygon fill="#ffffff" stroke="transparent" points="-4,4 -4,-216 262,-216 262,4 -4,4"/>
<g id="clust1" class="cluster">
<title>cluster_super</title>
<polygon fill="none" stroke="#000000" stroke-dasharray="5,2" points="8,-80 8,-204 128,-204 128,-80 8,-80"/>
</g>
<g id="clust2" class="cluster">
<title>cluster_app</title>
<polygon fill="none" stroke="#000000" stroke-dasharray="5,2" points="136,-8 136,-132 250,-132 250,-8 136,-8"/>
</g>
<!-- super&#45;pom -->
<g id="node1" class="node">
<title>super&#45;pom</title>
<ellipse fill="none" stroke="#000000" cx="68" cy="-178" rx="52.1694" ry="18"/>
<text text-anchor="middle" x="68" y="-173.8" font-family="Times,serif" font-size="14.00" fill="#000000">super&#45;pom</text>
</g>
<!-- super&#45;dep -->
<g id="node2" class="node">
<title>super&#45;dep</title>
<ellipse fill="none" stroke="#000000" cx="68" cy="-106" rx="49.2183" ry="18"/>
<text text-anchor="middle" x="68" y="-101.8" font-family="Times,serif" font-size="14.00" fill="#000000">super&#45;dep</text>
</g>
<!-- super&#45;pom&#45;&gt;super&#45;dep -->
<g id="edge1" class="edge">
<title>super&#45;pom&#45;&gt;super&#45;dep</title>
<path fill="none" stroke="#000000" d="M62.0476,-159.8314C61.2856,-152.0125 61.0696,-142.6923 61.3995,-134.0221"/>
<polygon fill="#000000" stroke="#000000" points="64.9004,-134.1239 62.0727,-123.9134 57.9159,-133.6587 64.9004,-134.1239"/>
</g>
<!-- super&#45;pom&#45;&gt;super&#45;dep -->
<g id="edge2" class="edge">
<title>super&#45;pom&#45;&gt;super&#45;dep</title>
<path fill="none" stroke="#000000" d="M74.6111,-149.6941C74.9291,-141.01 74.7012,-131.6993 73.9273,-123.9134"/>
<polygon fill="none" stroke="#000000" points="71.1082,-149.6254 73.9524,-159.8314 78.0935,-150.0794 71.1082,-149.6254"/>
</g>
<!-- some&#45;app -->
<g id="node3" class="node">
<title>some&#45;app</title>
<ellipse fill="none" stroke="#000000" cx="193" cy="-106" rx="48.6559" ry="18"/>
<text text-anchor="middle" x="193" y="-101.8" font-family="Times,serif" font-size="14.00" fill="#000000">some&#45;app</text>
</g>
<!-- super&#45;pom&#45;&gt;some&#45;app -->
<g id="edge6" class="edge">
<title>super&#45;pom&#45;&gt;some&#45;app</title>
<path fill="none" stroke="#000000" d="M103.9212,-157.3094C123.8297,-145.8421 148.1598,-131.8279 166.3592,-121.3451"/>
<polygon fill="none" stroke="#000000" points="102.0415,-154.3529 95.1231,-162.3771 105.5354,-160.4187 102.0415,-154.3529"/>
</g>
<!-- module&#45;a -->
<g id="node4" class="node">
<title>module&#45;a</title>
<ellipse fill="none" stroke="#000000" cx="193" cy="-34" rx="47.5119" ry="18"/>
<text text-anchor="middle" x="193" y="-29.8" font-family="Times,serif" font-size="14.00" fill="#000000">module&#45;a</text>
</g>
<!-- super&#45;dep&#45;&gt;module&#45;a -->
<g id="edge5" class="edge">
<title>super&#45;dep&#45;&gt;module&#45;a</title>
<path fill="none" stroke="#000000" d="M103.366,-85.6292C123.4376,-74.068 148.1421,-59.8382 166.5289,-49.2473"/>
<polygon fill="#000000" stroke="#000000" points="94.5093,-90.7307 100.9285,-81.84 98.8419,-88.235 103.1746,-85.7394 103.1746,-85.7394 103.1746,-85.7394 98.8419,-88.235 105.4207,-89.6388 94.5093,-90.7307 94.5093,-90.7307"/>
</g>
<!-- some&#45;app&#45;&gt;module&#45;a -->
<g id="edge3" class="edge">
<title>some&#45;app&#45;&gt;module&#45;a</title>
<path fill="none" stroke="#000000" d="M187.0476,-87.8314C186.2856,-80.0125 186.0696,-70.6923 186.3995,-62.0221"/>
<polygon fill="#000000" stroke="#000000" points="189.9004,-62.1239 187.0727,-51.9134 182.9159,-61.6587 189.9004,-62.1239"/>
</g>
<!-- some&#45;app&#45;&gt;module&#45;a -->
<g id="edge4" class="edge">
<title>some&#45;app&#45;&gt;module&#45;a</title>
<path fill="none" stroke="#000000" d="M199.6111,-77.6941C199.9291,-69.01 199.7012,-59.6993 198.9273,-51.9134"/>
<polygon fill="none" stroke="#000000" points="196.1082,-77.6254 198.9524,-87.8314 203.0935,-78.0794 196.1082,-77.6254"/>
</g>
</g>
</svg>

